<svg width="368" height="207" viewBox="0 0 368 207" fill="none" xmlns="http://www.w3.org/2000/svg">
<path d="M268.252 154.651C259.816 154.651 252.954 147.783 252.954 139.347C252.954 130.911 259.816 124.049 268.252 124.049C276.689 124.049 283.551 130.91 283.551 139.347C283.551 147.784 276.689 154.651 268.252 154.651ZM99.1529 154.651C90.7172 154.651 83.8551 147.783 83.8551 139.347C83.8551 130.911 90.7158 124.049 99.1529 124.049C107.589 124.049 114.451 130.91 114.451 139.347C114.451 147.784 107.59 154.651 99.1529 154.651ZM273.739 62.494L304.315 9.53837C305.157 8.07692 305.384 6.34128 304.948 4.71227C304.511 3.08326 303.446 1.69395 301.987 0.849171C300.525 0.00789702 298.79 -0.219423 297.161 0.217067C295.532 0.653557 294.143 1.71822 293.298 3.17758L262.339 56.8025C238.663 45.9991 212.075 39.98 183.703 39.98C155.33 39.98 128.742 45.9991 105.067 56.8025L74.1074 3.17758C73.2624 1.71822 71.8731 0.653557 70.2442 0.217067C68.6153 -0.219423 66.8798 0.00789702 65.4182 0.849171C63.9577 1.69316 62.8921 3.08249 62.4555 4.71182C62.0189 6.34116 62.247 8.07718 63.0898 9.53837L93.6658 62.494C41.1624 91.0497 5.25328 144.203 0 207H367.405C362.148 144.204 326.238 91.0497 273.739 62.4926" fill="#010101" fill-opacity="0.1"/>
</svg>
