<svg width="51" height="44" viewBox="0 0 51 44" fill="none" xmlns="http://www.w3.org/2000/svg">
<path d="M9.464 28.256C6.62667 28.256 4.35467 27.7227 2.648 26.656C0.941333 25.568 0.0880001 23.9147 0.0880001 21.696C0.0880001 20.5227 0.290667 19.6267 0.696 19.008C1.10133 18.3893 1.69867 18.08 2.488 18.08C3.064 18.08 3.53333 18.2293 3.896 18.528C4.25867 18.8267 4.44 19.2107 4.44 19.68C4.44 20.1067 4.408 20.48 4.344 20.8C4.344 20.8853 4.32267 21.0347 4.28 21.248C4.25867 21.4613 4.248 21.6853 4.248 21.92C4.248 22.88 4.728 23.5947 5.688 24.064C6.66933 24.5333 8.03467 24.768 9.784 24.768C11.5973 24.768 13.016 24.448 14.04 23.808C15.064 23.1467 15.576 22.2293 15.576 21.056C15.576 20.3307 15.3413 19.712 14.872 19.2C14.4027 18.6667 13.816 18.2293 13.112 17.888C12.408 17.5253 11.416 17.088 10.136 16.576C8.49333 15.936 7.14933 15.328 6.104 14.752C5.08 14.176 4.19467 13.3973 3.448 12.416C2.72267 11.4133 2.36 10.176 2.36 8.704C2.36 7.168 2.76533 5.80267 3.576 4.608C4.408 3.41333 5.592 2.48533 7.128 1.824C8.68533 1.16267 10.5093 0.831999 12.6 0.831999C14.1573 0.831999 15.5867 1.06667 16.888 1.536C18.1893 1.984 19.224 2.67733 19.992 3.616C20.7813 4.55467 21.176 5.70667 21.176 7.072C21.176 8.416 20.9733 9.42933 20.568 10.112C20.1627 10.7947 19.5653 11.136 18.776 11.136C18.2213 11.136 17.752 10.9653 17.368 10.624C17.0053 10.2827 16.824 9.87733 16.824 9.408C16.824 9.00267 16.856 8.62933 16.92 8.288C16.984 7.648 17.016 7.24267 17.016 7.072C17.016 6.176 16.5787 5.49333 15.704 5.024C14.8293 4.55467 13.7413 4.32 12.44 4.32C10.6053 4.32 9.19733 4.66133 8.216 5.344C7.256 6.00533 6.776 6.944 6.776 8.16C6.776 8.97067 7.02133 9.664 7.512 10.24C8.024 10.816 8.65333 11.296 9.4 11.68C10.1467 12.064 11.192 12.5227 12.536 13.056C14.1573 13.7173 15.4587 14.3147 16.44 14.848C17.4213 15.3813 18.2533 16.1067 18.936 17.024C19.64 17.9413 19.992 19.072 19.992 20.416C19.992 22.9333 19.032 24.8747 17.112 26.24C15.2133 27.584 12.664 28.256 9.464 28.256ZM49.1535 35.864C49.4308 35.864 49.6442 35.992 49.7935 36.248C49.9642 36.504 50.0495 36.856 50.0495 37.304C50.0495 38.136 49.8468 38.7973 49.4415 39.288C48.4175 40.5253 47.3828 41.4853 46.3375 42.168C45.2922 42.8293 44.0548 43.16 42.6255 43.16C41.0468 43.16 39.7562 42.7013 38.7535 41.784C37.7508 40.8453 36.8122 39.3947 35.9375 37.432C35.2975 36.024 34.7642 34.9787 34.3375 34.296C33.9322 33.592 33.5268 33.1013 33.1215 32.824C32.7162 32.5253 32.2042 32.344 31.5855 32.28L31.2335 34.648C30.7855 37.6987 29.9108 39.896 28.6095 41.24C27.3295 42.584 25.5588 43.256 23.2975 43.256C21.8255 43.256 20.5135 42.904 19.3615 42.2C18.2308 41.4747 17.4415 40.5573 16.9935 39.448C16.8442 39.064 16.7695 38.648 16.7695 38.2C16.7695 37.56 16.9188 37.0053 17.2175 36.536C17.5162 36.0667 17.9002 35.832 18.3695 35.832C18.6468 35.832 18.8815 35.9067 19.0735 36.056C19.2655 36.184 19.4468 36.4187 19.6175 36.76C20.2788 37.9973 20.8548 38.8613 21.3455 39.352C21.8575 39.8427 22.4868 40.088 23.2335 40.088C24.0868 40.088 24.8122 39.704 25.4095 38.936C26.0282 38.1467 26.4655 36.9413 26.7215 35.32L27.1695 32.28H26.6575C26.1668 32.28 25.7828 32.1413 25.5055 31.864C25.2282 31.5867 25.0895 31.2027 25.0895 30.712C25.0895 30.1573 25.2282 29.72 25.5055 29.4C25.8042 29.0587 26.1668 28.888 26.5935 28.888H27.6495C27.7988 27.8427 27.9055 27.1173 27.9695 26.712L28.9615 19.512C28.4068 19.448 27.8842 19.416 27.3935 19.416C25.5802 19.416 24.2042 19.736 23.2655 20.376C22.3268 20.9947 21.8575 21.8907 21.8575 23.064C21.8575 23.5973 21.9108 24.0347 22.0175 24.376C22.1455 24.696 22.3055 25.0587 22.4975 25.464C22.5828 25.6347 22.6255 25.8267 22.6255 26.04C22.6255 26.5093 22.4015 26.9253 21.9535 27.288C21.5268 27.6293 21.0468 27.8 20.5135 27.8C19.8308 27.8 19.3295 27.5013 19.0095 26.904C18.3695 25.7733 18.0495 24.5573 18.0495 23.256C18.0495 21.912 18.4122 20.6853 19.1375 19.576C19.8842 18.4667 21.0042 17.5813 22.4975 16.92C23.9908 16.2373 25.8362 15.896 28.0335 15.896C28.9935 15.896 29.8682 15.9493 30.6575 16.056C31.4682 16.1627 32.3535 16.3653 33.3135 16.664C34.3588 16.984 34.8815 17.5813 34.8815 18.456C34.8815 19.6293 34.3802 20.216 33.3775 20.216L32.1295 28.824C34.6255 28.568 36.6522 27.5013 38.2095 25.624C39.7882 23.7253 41.1002 21.1547 42.1455 17.912C42.3375 17.3147 42.6575 16.856 43.1055 16.536C43.5748 16.216 44.1615 16.056 44.8655 16.056C45.4628 16.056 45.9215 16.1947 46.2415 16.472C46.5828 16.728 46.7535 17.1013 46.7535 17.592C46.7535 17.7413 46.7108 17.9867 46.6255 18.328C45.5588 21.848 44.0335 24.6427 42.0495 26.712C40.0655 28.7813 37.9002 30.1573 35.5535 30.84C36.3642 31.032 37.0255 31.32 37.5375 31.704C38.0708 32.088 38.5188 32.568 38.8815 33.144C39.2442 33.6987 39.6602 34.4773 40.1295 35.48C40.7908 36.888 41.4095 37.8907 41.9855 38.488C42.5615 39.064 43.2335 39.352 44.0015 39.352C44.6842 39.352 45.3348 39.128 45.9535 38.68C46.5722 38.2107 47.3508 37.4213 48.2895 36.312C48.5455 36.0133 48.8335 35.864 49.1535 35.864Z" fill="#F7484E"/>
</svg>
