<svg width="112" height="100" viewBox="0 0 112 100" fill="none" xmlns="http://www.w3.org/2000/svg">
<path d="M56 0C25.0787 0 0 22.3875 0 50C0 72.0917 16.044 90.8333 38.2993 97.4458C41.0947 97.9083 42 96.3583 42 95.0417V85.7333C26.4227 88.7583 23.1793 79.8333 23.1793 79.8333C20.6313 74.0542 16.9587 72.5167 16.9587 72.5167C11.8767 69.4125 17.346 69.4792 17.346 69.4792C22.9693 69.8292 25.928 74.6333 25.928 74.6333C30.9213 82.275 39.0273 80.0667 42.224 78.7875C42.7233 75.5583 44.1747 73.35 45.78 72.1042C33.3433 70.8333 20.2673 66.5458 20.2673 47.3917C20.2673 41.9292 22.456 37.4708 26.0353 33.9708C25.4567 32.7083 23.5387 27.6208 26.5813 20.7375C26.5813 20.7375 31.2853 19.3958 41.986 25.8625C46.452 24.7542 51.24 24.2 56 24.1792C60.76 24.2 65.5527 24.7542 70.028 25.8625C80.7193 19.3958 85.414 20.7375 85.414 20.7375C88.4613 27.625 86.5433 32.7125 85.9647 33.9708C89.558 37.4708 91.728 41.9333 91.728 47.3917C91.728 66.5958 78.6287 70.825 66.1593 72.0625C68.166 73.6125 70 76.6542 70 81.3208V95.0417C70 96.3708 70.896 97.9333 73.738 97.4417C95.9747 90.8208 112 72.0833 112 50C112 22.3875 86.926 0 56 0Z" fill="white"/>
</svg>
