<svg width="316" height="428" viewBox="0 0 316 428" fill="none" xmlns="http://www.w3.org/2000/svg">
<path d="M4.21278 231.157C4.8146 243.791 17.5866 237.842 23.1367 233.965C28.6868 230.088 29.8236 233.363 30.626 225.944C31.1191 221.103 31.32 216.237 31.2278 211.372C22.801 210.51 14.3417 212.666 7.35562 217.454C3.87844 219.995 -2.60785 228.016 4.14591 230.823" fill="#010101" fill-opacity="0.1"/>
<path d="M10.7659 240.315C9.51618 240.332 8.27969 240.058 7.15497 239.513C5.86846 238.771 4.80496 237.697 4.07565 236.403C3.34634 235.11 2.97799 233.644 3.0091 232.16C2.18187 231.748 1.47224 231.134 0.946159 230.374C0.420078 229.614 0.0946106 228.734 0 227.815C0.239749 225.591 0.962323 223.445 2.11727 221.529C3.27223 219.612 4.83172 217.971 6.68689 216.719C13.9009 211.755 22.6506 209.527 31.3615 210.436H32.3645V211.439C32.5043 215.252 32.3926 219.07 32.0302 222.869V226.211C31.6958 231.425 30.6928 232.227 28.0181 232.895C26.5911 233.337 25.2386 233.99 24.0059 234.834C20.1584 237.805 15.5882 239.697 10.7659 240.315ZM27.7506 212.709C20.728 212.6 13.8495 214.705 8.09113 218.724C6.59491 219.757 5.32511 221.084 4.35933 222.624C3.39355 224.164 2.75209 225.885 2.47415 227.681C2.55623 228.306 2.81321 228.895 3.21547 229.38C3.61772 229.864 4.14887 230.226 4.74769 230.422H5.41638V231.157C5.31976 232.318 5.52807 233.483 6.02068 234.538C6.51329 235.594 7.2731 236.502 8.22487 237.173C10.7577 237.566 13.3459 237.398 15.8069 236.682C18.2678 235.966 20.5417 234.719 22.4679 233.029C23.863 232.051 25.3954 231.285 27.015 230.756C28.7536 230.155 29.1548 230.021 29.4223 225.877V222.534C29.7353 219.202 29.8693 215.855 29.8235 212.508H27.7506V212.709Z" fill="#010101" fill-opacity="0.1"/>
<path d="M4.21271 231.157C6.12404 230.734 7.86837 229.758 9.2279 228.35L4.21271 231.157Z" fill="#010101" fill-opacity="0.1"/>
<path d="M4.21276 232.361C3.9024 232.458 3.56601 232.428 3.27758 232.278C2.98916 232.127 2.77232 231.869 2.67478 231.558C2.57724 231.248 2.60698 230.912 2.75747 230.624C2.90795 230.335 3.16685 230.118 3.4772 230.021H4.27963C5.69262 229.693 6.97418 228.948 7.95739 227.882C8.05399 227.755 8.17472 227.648 8.31268 227.567C8.45065 227.486 8.60316 227.434 8.7615 227.412C8.91983 227.39 9.0809 227.4 9.2355 227.44C9.3901 227.481 9.53521 227.551 9.66254 227.648C9.78987 227.744 9.89693 227.865 9.9776 228.003C10.0583 228.141 10.111 228.293 10.1327 228.452C10.1544 228.61 10.1448 228.771 10.1043 228.926C10.0637 229.08 9.99317 229.225 9.89658 229.352C8.63251 230.805 6.95129 231.832 5.08205 232.294H4.21276V232.361Z" fill="#010101" fill-opacity="0.1"/>
<path d="M33.3676 80.8255C-14.9788 67.4568 20.9968 5.76002 60.1152 31.027L33.3676 80.8255Z" fill="#010101" fill-opacity="0.1"/>
<path d="M33.9694 82.2294H33.0333C19.2583 78.3524 10.7659 70.1975 9.16104 59.302C8.59218 53.3782 9.68614 47.4131 12.3201 42.0762C14.9542 36.7393 19.024 32.2419 24.0728 29.0886C29.5578 25.6199 35.9594 23.8798 42.4464 24.0943C48.9333 24.3089 55.2059 26.4682 60.4495 30.2918L61.3857 30.8934L33.9694 82.2294ZM40.6563 26.2143C35.1689 26.2214 29.8019 27.8239 25.2096 30.8265C20.5365 33.7253 16.7652 37.8698 14.3199 42.7941C11.8746 47.7184 10.8522 53.227 11.3677 58.7004C12.8388 68.3927 20.3282 75.7455 32.5652 79.4219L57.9754 31.495C52.8355 28.2815 46.9183 26.5255 40.8569 26.4149L40.6563 26.2143Z" fill="#010101" fill-opacity="0.1"/>
<path d="M248.151 26.4148C286.4 -0.322609 320.971 59.8366 276.503 75.4112L248.151 26.4148Z" fill="#010101" fill-opacity="0.1"/>
<path d="M275.968 76.8818L246.546 26.0806L247.415 25.4791C252.312 21.5558 258.267 19.1806 264.52 18.6567C270.773 18.1328 277.04 19.4841 282.522 22.5379C287.694 25.5658 291.925 29.967 294.746 35.2532C297.567 40.5394 298.868 46.5036 298.503 52.4839C297.835 59.1683 294.224 70.5985 276.905 76.5476L275.968 76.8818ZM249.756 26.7491L277.038 73.9407C281.99 72.5983 286.438 69.829 289.827 65.978C293.215 62.1269 295.396 57.3643 296.096 52.2834C296.446 46.7448 295.25 41.218 292.64 36.3196C290.031 31.4213 286.111 27.3442 281.318 24.5432C276.431 21.7425 270.821 20.4569 265.201 20.8496C259.582 21.2424 254.206 23.2958 249.756 26.7491Z" fill="#010101" fill-opacity="0.1"/>
<path d="M256.376 386.502C266.071 392.518 283.858 410.7 269.281 419.523C255.306 432.357 247.415 405.419 235.111 401.743C237.475 397.926 240.57 394.614 244.22 391.998C247.869 389.383 252.001 387.515 256.376 386.502Z" fill="#010101" fill-opacity="0.1"/>
<path d="M261.859 424.135H261.324C255.774 423.801 251.227 418.387 246.813 413.24C243.764 408.805 239.617 405.235 234.777 402.879L233.172 402.411L234.175 400.74C239.149 392.809 247.056 387.163 256.175 385.032H257.044C263.263 388.909 276.102 400.138 276.035 410.299C275.997 412.306 275.417 414.266 274.358 415.971C273.299 417.677 271.799 419.066 270.017 419.991C267.945 422.386 265.016 423.874 261.859 424.135ZM236.983 401.141C241.52 403.808 245.458 407.38 248.552 411.635C251.475 416.436 256.035 420.02 261.391 421.729C262.658 421.675 263.902 421.369 265.05 420.83C266.198 420.29 267.227 419.528 268.078 418.587C269.536 417.875 270.769 416.774 271.642 415.406C272.515 414.038 272.994 412.456 273.026 410.833C273.026 402.678 262.728 392.451 255.573 387.839C247.95 389.798 241.341 394.545 237.05 401.141H236.983Z" fill="#010101" fill-opacity="0.1"/>
<path d="M269.281 420.793C269.059 420.792 268.841 420.728 268.652 420.61C268.463 420.492 268.31 420.324 268.211 420.125C267.504 418.645 266.879 417.128 266.339 415.579C265.526 412.554 264.014 409.761 261.926 407.424C261.812 407.315 261.72 407.183 261.657 407.038C261.593 406.893 261.559 406.737 261.556 406.579C261.553 406.421 261.581 406.263 261.639 406.116C261.696 405.968 261.783 405.834 261.892 405.72C262.002 405.606 262.133 405.514 262.278 405.451C262.423 405.387 262.58 405.353 262.738 405.35C262.896 405.347 263.054 405.375 263.201 405.433C263.349 405.49 263.483 405.577 263.598 405.686C265.906 408.206 267.6 411.226 268.546 414.51C269.07 415.967 269.673 417.396 270.351 418.788C270.491 419.072 270.513 419.4 270.413 419.7C270.313 420 270.099 420.249 269.816 420.392L269.281 420.793Z" fill="#010101" fill-opacity="0.1"/>
<path d="M82.717 407.023C71.2824 408.761 64.863 419.055 55.3676 424.269C54.3713 425.188 53.1646 425.849 51.8534 426.194C50.5421 426.539 49.1662 426.557 47.8463 426.247C46.5263 425.937 45.3025 425.308 44.2822 424.416C43.2619 423.523 42.4761 422.394 41.9938 421.127C41.3301 421.143 40.6717 421.007 40.0689 420.728C39.4662 420.45 38.9351 420.038 38.5166 419.523C30.2248 406.154 47.1427 396.863 56.0363 390.312C68.5408 387.906 76.2307 398.534 82.717 407.023Z" fill="#010101" fill-opacity="0.1"/>
<path d="M49.3492 427.477C48.6391 427.571 47.9196 427.571 47.2094 427.477C45.9545 427.072 44.7933 426.419 43.7943 425.558C42.7952 424.697 41.9784 423.645 41.3918 422.464C40.7461 422.459 40.111 422.299 39.5406 421.996C38.9701 421.694 38.4812 421.258 38.1153 420.726C30.091 408.093 43.7323 398.534 52.7596 392.184L55.9024 389.911C68.5406 387.371 76.5649 397.798 82.9843 406.221L84.7898 408.627H82.7837C76.3309 410.168 70.458 413.533 65.8659 418.32C62.7861 421.15 59.4252 423.659 55.8355 425.806C53.8503 426.904 51.6181 427.479 49.3492 427.477ZM41.325 419.724C41.7876 419.622 42.2666 419.622 42.7292 419.724H43.0636L43.5985 420.793C44.0334 421.738 44.6542 422.587 45.4239 423.287C46.1936 423.988 47.0965 424.526 48.0787 424.871C50.4315 425.224 52.8296 424.649 54.7656 423.266C58.2336 421.194 61.4823 418.775 64.4616 416.047C68.9752 411.537 74.4999 408.168 80.5771 406.221C74.4251 398.2 67.2033 389.51 56.7048 391.515L53.6957 393.654C44.4678 400.339 33.0332 408.226 39.6532 418.855C39.8016 419.106 40.005 419.321 40.2482 419.483C40.4914 419.645 40.768 419.75 41.0575 419.79L41.325 419.724Z" fill="#010101" fill-opacity="0.1"/>
<path d="M42.1942 422.397C41.9959 422.409 41.7979 422.371 41.6177 422.287C41.4376 422.204 41.281 422.077 41.1618 421.918C41.0426 421.759 40.9646 421.573 40.9347 421.377C40.9049 421.181 40.9241 420.98 40.9906 420.793C41.4836 417.582 42.8222 414.56 44.869 412.037C45.837 410.709 46.6873 409.3 47.41 407.825C47.543 407.533 47.7868 407.305 48.0878 407.192C48.3888 407.08 48.7223 407.091 49.0149 407.224C49.3075 407.357 49.5353 407.6 49.6482 407.901C49.761 408.202 49.7497 408.536 49.6167 408.828C48.8402 410.443 47.9228 411.986 46.8751 413.44C45.1095 415.711 43.9788 418.41 43.5985 421.261C43.5914 421.432 43.548 421.599 43.4713 421.752C43.3945 421.904 43.2861 422.039 43.1532 422.146C43.0204 422.254 42.8661 422.332 42.7008 422.375C42.5354 422.418 42.3628 422.426 42.1942 422.397ZM35.3736 63.8474C28.6867 60.5052 24.3402 55.8929 28.2186 48.5401C32.097 41.1873 38.5164 42.4574 44.9359 45.7995L35.3736 63.8474ZM266.406 57.4304C273.093 54.0882 277.439 49.4759 273.561 42.1231C269.682 34.7703 263.263 36.0403 256.844 39.3825L266.406 57.4304Z" fill="#010101" fill-opacity="0.1"/>
<path d="M310.339 229.553C309.737 242.186 296.965 236.237 291.415 232.36C285.865 228.483 284.728 231.759 283.926 224.339C283.433 219.498 283.232 214.632 283.324 209.767C291.751 208.906 300.21 211.061 307.196 215.85C310.673 218.39 317.16 226.411 310.406 229.219" fill="#010101" fill-opacity="0.1"/>
<path d="M303.786 238.443C299.19 237.944 294.795 236.288 291.013 233.631C289.781 232.787 288.428 232.134 287.001 231.692C284.327 230.756 283.324 229.954 282.989 225.008V221.666C282.627 217.867 282.515 214.049 282.655 210.235V208.631H283.658C292.369 207.722 301.119 209.95 308.333 214.914C310.188 216.166 311.747 217.808 312.902 219.724C314.057 221.641 314.78 223.786 315.02 226.01C314.925 226.93 314.599 227.81 314.073 228.569C313.547 229.329 312.838 229.943 312.01 230.355C312.042 231.84 311.673 233.305 310.944 234.599C310.215 235.892 309.151 236.966 307.865 237.708C306.592 238.303 305.186 238.557 303.786 238.443ZM284.327 210.904C284.281 214.251 284.415 217.598 284.728 220.93V224.273C284.728 228.35 285.33 228.484 287.135 229.152C288.755 229.681 290.287 230.447 291.682 231.425C293.606 233.119 295.88 234.369 298.341 235.085C300.803 235.801 303.392 235.967 305.925 235.569C306.877 234.898 307.637 233.99 308.13 232.934C308.622 231.879 308.83 230.714 308.734 229.553V228.751H309.403C310.001 228.555 310.533 228.193 310.935 227.709C311.337 227.224 311.594 226.635 311.676 226.01C311.398 224.214 310.757 222.493 309.791 220.953C308.825 219.413 307.555 218.086 306.059 217.053C299.724 212.595 292.059 210.427 284.327 210.904Z" fill="#010101" fill-opacity="0.1"/>
<path d="M310.339 229.553C308.451 229.186 306.709 228.281 305.324 226.946L310.339 229.553Z" fill="#010101" fill-opacity="0.1"/>
<path d="M310.339 230.756H309.068C307.196 230.161 305.558 228.991 304.388 227.414C304.291 227.287 304.22 227.142 304.18 226.987C304.139 226.833 304.13 226.672 304.151 226.513C304.173 226.355 304.226 226.203 304.307 226.065C304.387 225.927 304.494 225.806 304.622 225.71C304.749 225.613 304.894 225.543 305.049 225.502C305.203 225.462 305.364 225.452 305.523 225.474C305.681 225.495 305.833 225.548 305.971 225.629C306.109 225.709 306.23 225.816 306.327 225.944C307.31 227.01 308.591 227.755 310.004 228.082H310.807C311.161 228.144 311.477 228.345 311.684 228.639C311.891 228.934 311.972 229.299 311.91 229.653C311.848 230.008 311.647 230.323 311.353 230.53C311.058 230.737 310.693 230.818 310.339 230.756Z" fill="#010101" fill-opacity="0.1"/>
<path d="M152.461 0.880547C200.874 0.880547 246.078 7.56492 269.883 54.3555C291.081 106.427 283.257 162.642 286.801 217.655C289.609 264.913 295.761 319.525 273.828 363.374C250.892 409.363 192.984 420.793 145.507 419.256C108.194 417.919 63.1243 405.887 42.0605 371.663C17.319 331.557 29.0211 272.199 30.8265 227.748C32.9663 175.075 16.5166 122.202 33.8356 70.5986C51.8234 17.1236 100.237 5.02486 152.394 0.880547" fill="#010101" fill-opacity="0.1"/>
<path d="M153.732 420.793H145.44C125.508 420.233 105.815 416.301 87.1972 409.162C68.2425 402.294 52.0285 389.464 40.9907 372.599C20.93 340.246 24.5409 295.595 27.6169 256.157C28.4193 246.264 29.1549 236.839 29.4892 228.016C29.8436 209.312 29.0396 190.605 27.082 172.001C24.2735 138.579 21.3312 104.02 32.5652 70.5317C36.1897 58.7662 42.2228 47.8829 50.2811 38.5733C58.3393 29.2638 68.2467 21.7315 79.3736 16.4551C97.4282 7.63171 119.495 2.55158 151.926 0.0115167C199.671 -0.322702 246.747 6.36168 270.953 53.7539C286.467 91.8549 286.668 132.763 286.935 172.335C286.935 187.174 286.935 202.481 288.005 217.454C288.005 222 288.54 226.612 288.874 231.224C291.683 274.606 294.893 323.87 274.899 363.708C249.89 413.574 187.033 420.793 153.732 420.793ZM152.461 2.08367C102.109 6.36167 53.0272 17.1904 34.9725 70.9996C23.8722 104.02 26.8145 138.311 29.5561 171.265C31.5204 189.958 32.3243 208.755 31.9634 227.548C31.6291 236.438 30.8266 245.863 30.0911 255.823C27.0151 294.859 23.4042 339.177 42.9968 370.794C51.2217 384.163 77.7018 415.379 145.507 417.585C174.863 418.654 245.811 415.312 272.558 362.238C292.218 322.934 289.075 274.071 286.266 230.957C286.266 226.278 285.665 221.665 285.397 217.187C284.662 202.615 284.327 187.241 284.327 172.402C284.327 133.097 283.926 92.1891 268.546 54.7566C258.653 34.4082 241.14 18.7745 219.799 11.2413C198.04 4.37005 175.265 1.27279 152.461 2.08367Z" fill="#010101" fill-opacity="0.1"/>
<path d="M160.953 65.7858C169.646 116.253 252.163 102.951 240.327 52.016C229.695 6.36173 158.078 18.9952 160.953 65.7858Z" fill="#010101" fill-opacity="0.1"/>
<path d="M200.206 98.7396C195.066 98.7612 189.958 97.9253 185.093 96.2664C178.474 94.0776 172.6 90.0821 168.133 84.7312C163.667 79.3804 160.786 72.8876 159.817 65.9863C159.368 60.584 160.065 55.1478 161.862 50.0335C163.66 44.9191 166.518 40.2418 170.248 36.3077C177.405 28.9687 186.829 24.2583 196.996 22.939C206.314 21.4648 215.858 23.1097 224.145 27.618C228.565 30.1987 232.392 33.6814 235.376 37.839C238.36 41.9967 240.434 46.7361 241.464 51.7486C243.264 58.0862 243.253 64.8008 241.433 71.1326C239.613 77.4644 236.057 83.1607 231.166 87.5768C222.538 94.9215 211.537 98.8878 200.206 98.7396ZM162.157 65.6521C163.073 72.1282 165.78 78.2197 169.975 83.2394C174.169 88.259 179.684 92.007 185.896 94.0606C193.297 96.5346 201.208 97.0717 208.876 95.6207C216.543 94.1697 223.711 90.7789 229.695 85.772C234.202 81.6138 237.478 76.2963 239.165 70.4016C240.851 64.5068 240.883 58.2619 239.257 52.3502C237.205 43.2594 231.677 35.3315 223.855 30.2605C216.033 25.1895 206.538 23.3775 197.397 25.2117C187.423 26.0652 178.17 30.7609 171.595 38.3069C165.019 45.8529 161.635 55.6583 162.157 65.6521Z" fill="#010101" fill-opacity="0.1"/>
<path d="M62.3219 74.0076C73.5559 117.924 143.902 106.627 141.294 62.5773C138.151 9.77072 51.556 19.7304 62.3219 74.0076Z" fill="#010101" fill-opacity="0.1"/>
<path d="M99.9023 102.951C92.7496 103.004 85.6956 101.282 79.3735 97.9375C74.8477 95.4859 70.8929 92.1036 67.7694 88.0135C64.646 83.9234 62.4247 79.2183 61.252 74.208C59.5082 67.3705 59.7659 60.1762 61.9946 53.4809C64.2232 46.7857 68.329 40.8712 73.8233 36.4413C80.4667 31.3742 88.3303 28.1496 96.6196 27.0932C104.909 26.0369 113.33 27.1864 121.033 30.4254C127.299 33.1638 132.646 37.6431 136.439 43.3309C140.232 49.0186 142.312 55.6756 142.431 62.5104C143.835 85.9056 125.246 99.5418 107.458 102.617C104.952 102.923 102.426 103.035 99.9023 102.951ZM63.6593 73.7401C65.9737 83.0318 71.8485 91.042 80.0168 96.0437C88.1851 101.045 97.9927 102.638 107.325 100.478C124.176 97.8038 141.762 84.9698 140.425 62.9783C140.344 56.5465 138.408 50.2747 134.85 44.9155C131.292 39.5563 126.262 35.3373 120.364 32.7649C113.041 29.6921 105.035 28.6055 97.1572 29.6148C89.279 30.6242 81.8068 33.6937 75.4951 38.5135C70.3835 42.6588 66.5566 48.1718 64.4609 54.4091C62.3652 60.6464 62.0872 67.3508 63.6593 73.7401Z" fill="#010101" fill-opacity="0.1"/>
<path d="M170.65 126.681C171.293 133.64 171.293 140.644 170.65 147.603C168.692 150.08 165.92 151.785 162.826 152.416C160.923 152.123 159.123 151.358 157.593 150.19C156.062 149.022 154.85 147.489 154.066 145.731C153.636 137.84 153.838 129.927 154.668 122.068L170.65 126.681Z" fill="#010101" fill-opacity="0.1"/>
<path d="M163.562 153.418H163.227C161.102 153.088 159.095 152.221 157.399 150.899C155.702 149.577 154.371 147.844 153.531 145.864C152.976 140.464 152.976 135.022 153.531 129.621C153.531 127.148 153.932 124.541 153.999 122.001V119.996L172.054 125.544V126.68C172.054 128.819 172.054 131.092 172.388 133.365C172.992 138.136 172.992 142.965 172.388 147.736V148.07C171.687 149.214 170.764 150.206 169.673 150.987C168.582 151.767 167.345 152.321 166.036 152.616L163.963 153.418H163.562ZM155.805 144.995C156.474 146.522 157.506 147.862 158.811 148.899C160.116 149.936 161.655 150.638 163.294 150.945L165.166 150.209C167.182 149.724 168.931 148.479 170.048 146.733C170.579 142.293 170.579 137.805 170.048 133.365C170.048 131.293 170.048 129.287 169.714 127.282L156.34 123.204C156.34 125.277 156.34 127.349 155.938 129.354C155.346 134.526 155.279 139.744 155.738 144.929L155.805 144.995Z" fill="#010101" fill-opacity="0.1"/>
<path d="M81.7139 79.6894C88.2875 79.6894 93.6165 73.9135 93.6165 66.7885C93.6165 59.6636 88.2875 53.8877 81.7139 53.8877C75.1402 53.8877 69.8112 59.6636 69.8112 66.7885C69.8112 73.9135 75.1402 79.6894 81.7139 79.6894Z" fill="#010101" fill-opacity="0.1"/>
<path d="M87.1303 73.0051C88.6814 73.0051 89.9388 71.5386 89.9388 69.7297C89.9388 67.9208 88.6814 66.4543 87.1303 66.4543C85.5791 66.4543 84.3217 67.9208 84.3217 69.7297C84.3217 71.5386 85.5791 73.0051 87.1303 73.0051Z" fill="#010101" fill-opacity="0.1"/>
<path d="M181.349 76.4809C187.812 76.4809 193.051 70.705 193.051 63.5801C193.051 56.4552 187.812 50.6793 181.349 50.6793C174.886 50.6793 169.647 56.4552 169.647 63.5801C169.647 70.705 174.886 76.4809 181.349 76.4809Z" fill="#010101" fill-opacity="0.1"/>
<path d="M186.631 69.7964C188.145 69.7964 189.373 68.33 189.373 66.5211C189.373 64.7122 188.145 63.2457 186.631 63.2457C185.117 63.2457 183.89 64.7122 183.89 66.5211C183.89 68.33 185.117 69.7964 186.631 69.7964Z" fill="#010101" fill-opacity="0.1"/>
<path d="M137.215 125.678C131.999 138.244 140.091 163.378 154.2 144.862C153.77 136.971 153.972 129.058 154.802 121.199L137.215 125.678Z" fill="#010101" fill-opacity="0.1"/>
<path d="M144.504 152.683C143.281 152.695 142.078 152.371 141.027 151.747C135.343 148.472 131.799 135.036 135.811 125.009V124.475L155.872 119.394V120.999C155.872 123.606 155.872 126.213 155.404 128.686C154.859 133.93 154.859 139.217 155.404 144.461V145.33C154.321 147.348 152.762 149.072 150.863 150.353C148.964 151.634 146.781 152.434 144.504 152.683ZM137.884 126.68C135.008 134.501 137.282 146.734 142.297 149.608C145.908 151.68 149.92 148.071 152.729 144.461C152.22 139.215 152.22 133.932 152.729 128.686C152.729 126.747 152.729 124.675 153.13 122.67L137.884 126.68Z" fill="#010101" fill-opacity="0.1"/>
<path d="M138.753 101.48C136.342 101.71 134.019 102.508 131.976 103.809C129.933 105.11 128.228 106.877 127.001 108.965C125.774 111.053 125.06 113.402 124.917 115.819C124.775 118.236 125.208 120.653 126.182 122.87C132.869 134.902 147.714 121.801 156.942 122.87C167.574 122.87 176.334 134.1 184.893 124.876C194.388 114.582 180.814 104.823 170.182 100.077L138.753 101.48Z" fill="#010101" fill-opacity="0.1"/>
<path d="M177.337 129.956C173.937 129.673 170.623 128.743 167.574 127.215C164.267 125.583 160.683 124.585 157.008 124.274C153.179 124.273 149.393 125.093 145.908 126.681C138.419 129.287 129.926 132.229 125.112 123.606C123.917 121.459 123.291 119.043 123.291 116.587C123.291 114.131 123.917 111.715 125.112 109.568C126.411 107.056 128.312 104.905 130.646 103.307C132.98 101.709 135.673 100.714 138.486 100.411L170.65 99.0071C178.54 102.349 187.567 108.432 189.105 115.518C189.338 117.247 189.214 119.007 188.74 120.687C188.265 122.366 187.452 123.931 186.349 125.284C185.246 126.637 183.877 127.75 182.327 128.554C180.777 129.357 179.078 129.834 177.337 129.956ZM157.276 121.868C161.229 122.188 165.087 123.254 168.644 125.009C174.662 127.549 179.409 129.488 184.224 124.274C185.323 123.264 186.151 121.994 186.63 120.581C187.109 119.167 187.225 117.656 186.966 116.186C185.628 110.036 177.136 104.421 170.182 101.48L139.088 102.75C136.694 103.043 134.409 103.915 132.428 105.289C130.447 106.663 128.831 108.499 127.72 110.638C126.73 112.429 126.212 114.441 126.212 116.487C126.212 118.533 126.73 120.545 127.72 122.336C131.531 129.02 138.352 126.814 145.641 124.341C149.3 122.703 153.266 121.86 157.276 121.868Z" fill="#010101" fill-opacity="0.1"/>
<path d="M137.215 101.012C136.48 84.3015 168.443 82.1625 172.188 96.1997C175.932 110.237 138.753 113.445 137.215 101.012Z" fill="#010101" fill-opacity="0.1"/>
</svg>
