<svg width="112" height="100" viewBox="0 0 112 100" fill="none" xmlns="http://www.w3.org/2000/svg">
<path d="M33.954 78.4899C34.644 72.9479 34.02 67.1119 33.974 61.6369C33.909 53.5069 33.766 45.3769 33.716 37.2569C33.802 36.9369 33.75 36.6029 33.463 36.3289C33.433 36.2989 33.4 36.2659 33.368 36.2369C33.136 35.9049 32.775 35.8869 32.431 36.0039C30.305 35.8189 28.161 35.7739 26.029 35.8689C24.815 35.9229 23.646 36.1619 22.426 36.1529C21.819 36.1129 21.211 36.0769 20.603 36.0399C20.427 36.0459 18.069 36.3179 18.123 36.3239C17.979 36.3089 17.833 36.3439 17.705 36.4119C17.672 36.4199 17.639 36.4319 17.607 36.4519C16.187 37.3879 17.051 40.8719 17.17 42.2019C17.426 45.1019 17.52 48.0559 17.517 51.0119C17.462 51.1349 17.417 51.2589 17.392 51.3819C17.022 53.2519 17.192 55.3919 17.372 57.4359C17.347 58.0939 17.317 58.7519 17.286 59.4059C17.03 64.7209 17.781 69.9809 17.464 75.3079C17.319 77.7199 17.808 80.1159 17.56 82.5199C17.447 83.6219 17.39 84.7099 17.373 85.8159C17.356 86.9659 16.95 87.9409 17.208 89.0759C17.338 89.6489 17.782 89.8219 18.228 89.7429C19.914 90.4489 22.595 89.7749 24.292 89.8949C25.38 89.9709 26.552 89.7479 27.726 89.5649C29.266 89.6129 30.846 89.5349 32.296 89.8579C32.486 89.8999 32.686 89.8579 32.87 89.7699C33.545 89.8969 34.315 89.0729 34.213 88.4279C33.693 85.1379 33.941 81.8109 33.953 78.4909L33.954 78.4899ZM95.808 79.3769C95.778 75.7389 95.646 72.0999 95.575 68.4619C95.53 66.1549 95.585 63.7849 95.425 61.4539C95.422 61.0639 95.425 60.6979 95.435 60.3679C95.632 54.9179 95.585 47.0379 92.055 42.5029C90.171 40.0829 88.702 38.1399 85.991 36.5989C83.376 35.1119 80.119 34.6619 77.161 34.6329C73.064 34.5909 67.271 35.2629 64.711 38.7679C64.431 38.9699 64.155 39.1759 63.891 39.3899C62.401 40.5999 60.983 41.9039 60.021 43.5299C60.183 41.5519 60.341 38.8179 59.898 37.3259V36.6959C59.893 36.3359 59.578 36.2729 59.288 36.3559C59.214 36.3109 59.135 36.2759 59.048 36.2589C58.788 36.2129 58.528 36.1839 58.263 36.1649C57.175 35.3249 55.448 35.5389 54.103 35.4489C52.453 35.3369 50.873 35.5269 49.235 35.6619C48.465 35.7239 47.865 35.8919 47.285 36.0949C46.753 36.0579 46.221 36.0149 45.688 35.9869C45.361 35.9669 45.088 36.1089 44.888 36.3189C44.848 36.3289 44.81 36.3449 44.773 36.3659C44.55 36.0079 43.791 36.4379 43.897 36.8579C44.257 38.2819 43.947 40.3229 43.994 41.8009C44.064 44.1109 44.064 46.4369 44.056 48.7469C44.04 53.3009 44.292 57.8549 44.276 62.4069C44.263 66.3309 44.286 70.2549 44.316 74.1789C44.259 79.1409 44.339 84.0969 44.388 89.0789C44.394 89.6489 44.754 89.8359 45.178 89.7769C46.423 90.5169 48.248 89.9639 49.648 90.0329C52.7 90.1849 55.768 90.2629 58.823 90.2979C59.107 90.3029 59.445 90.0959 59.693 89.8149C59.713 89.8169 59.733 89.8219 59.755 89.8229C60.189 89.8479 60.765 89.5609 60.775 89.0529C60.975 80.4629 61.142 71.8689 60.655 63.2959C60.425 59.2189 61.52 54.5019 64.565 51.6519C65.495 50.7819 66.585 50.1869 67.757 49.8039C70.141 49.4979 72.66 49.9899 74.821 51.0559C76.773 52.0189 77.694 53.7989 78.461 55.7219C78.513 59.5949 78.821 63.4919 79.036 67.3289C78.916 74.4849 78.488 81.6459 78.488 88.8049C78.488 89.7249 79.495 89.8509 80.206 89.5779C82.553 89.5419 84.92 89.8379 87.254 89.7679C89.561 89.6979 92.567 90.2659 94.684 89.4009C94.924 89.3929 95.184 89.1909 95.256 88.9609C95.446 88.7209 95.563 88.4279 95.493 88.1709C95.515 88.0509 95.527 87.9309 95.52 87.8109C95.492 87.3769 95.484 86.9449 95.484 86.5139C95.564 85.3839 95.612 84.2439 95.642 83.0939C95.728 81.8639 95.817 80.6259 95.808 79.3739V79.3769ZM33.17 13.2399C32.198 12.0429 29.577 10.2969 27.44 10.2269C26.072 9.83293 24.55 9.86693 23.206 10.1969C20.139 10.9539 18.082 12.6689 16.779 15.5469C14.799 19.9129 16.459 24.8729 20.367 27.5369C24.367 30.2629 29.857 29.1149 32.825 25.5729C35.705 22.1359 36.105 16.8559 33.17 13.2409V13.2399Z" fill="white"/>
<path d="M31.774 65.815L31.531 65.575C31.246 65.287 30.685 65.815 30.969 66.098C31.049 66.18 31.129 66.261 31.211 66.342C31.496 66.629 32.059 66.102 31.775 65.815H31.774ZM31.204 67.612C30.964 67.689 30.816 67.909 30.819 68.155L30.839 70.083C30.841 70.313 31.111 70.391 31.292 70.331C31.522 70.256 31.655 70.051 31.657 69.814C31.665 69.168 31.671 68.52 31.677 67.874C31.682 67.631 31.387 67.552 31.203 67.614L31.204 67.612ZM31.278 73.408C31.278 73.118 30.933 73.023 30.71 73.098C30.423 73.191 30.253 73.451 30.253 73.744C30.253 74.267 30.23 74.75 30.381 75.254C30.521 75.72 31.107 75.25 31.175 74.994C31.313 74.471 31.279 73.948 31.279 73.408H31.278ZM28.007 69.236C27.87 68.779 27.277 69.23 27.215 69.498C27.142 69.815 27.065 70.138 27.108 70.465C27.158 70.861 27.24 71.201 27.096 71.589C26.982 71.897 27.356 72.069 27.563 71.837C27.883 71.477 28.063 71.107 28.193 70.647C28.33 70.137 28.15 69.715 28.007 69.235V69.236ZM27.576 77.527C27.336 77.607 27.191 77.825 27.191 78.07C27.191 78.44 27.141 78.73 26.981 79.064C26.888 79.264 26.985 79.517 27.211 79.557C27.457 79.605 27.678 79.423 27.777 79.212C28.003 78.744 28.052 78.302 28.054 77.788C28.054 77.546 27.764 77.468 27.577 77.528L27.576 77.527ZM30.41 80.71C30.34 80.255 29.722 80.524 29.675 80.863C29.639 81.111 29.6 81.357 29.549 81.603C29.489 81.881 29.502 82.18 29.419 82.453C29.269 82.948 29.881 83.085 30.122 82.695C30.305 82.402 30.437 82.091 30.502 81.752C30.562 81.432 30.456 81.029 30.408 80.712L30.41 80.71ZM28.058 84.24C27.945 83.414 26.768 83.87 26.705 84.51C26.665 84.94 26.655 85.356 26.729 85.778C26.769 86 26.766 86.228 26.811 86.448C26.844 86.612 26.917 86.732 26.873 86.9C26.828 87.065 27.021 87.19 27.163 87.126C27.69 86.89 27.975 86.408 28.088 85.858C28.203 85.288 28.134 84.804 28.056 84.24H28.058ZM29.096 62.847C29.064 62.52 28.593 62.713 28.566 62.957C28.546 63.147 28.53 63.299 28.381 63.437C27.981 63.817 28.549 64.239 28.865 63.804C29.082 63.506 29.135 63.208 29.097 62.847H29.096ZM28.094 22.38C28.122 22.252 28.05 22.36 27.954 22.412C27.844 22.472 27.749 22.552 27.651 22.626C27.203 22.968 27.741 23.563 28.139 23.149C28.392 22.886 28.749 22.729 28.771 22.321C28.795 21.831 28.175 22.016 28.095 22.378L28.094 22.38ZM32.626 20.422C32.514 19.639 31.506 20.132 31.399 20.669C31.339 20.959 31.219 21.249 30.957 21.401C30.652 21.576 30.407 21.991 30.564 22.341C30.724 22.703 31.157 22.678 31.454 22.521C32.236 22.109 32.751 21.314 32.624 20.421L32.626 20.422ZM31.47 16.152V16.422C31.47 16.772 32.015 16.535 32.015 16.239V15.969C32.015 15.619 31.471 15.857 31.471 16.151L31.47 16.152ZM29.624 17.843C29.574 17.513 29.144 17.663 29.057 17.889C29.005 18.029 28.851 18.243 28.72 18.309C28.572 18.385 28.53 18.619 28.71 18.673C29.24 18.835 29.702 18.365 29.624 17.843ZM29.897 13.73C29.829 13.01 28.847 13.46 28.762 13.96C28.729 14.157 28.646 14.328 28.574 14.505C28.411 14.505 28.247 14.693 28.312 14.849C28.418 15.101 28.428 15.447 28.662 15.627C28.984 15.874 29.352 15.667 29.517 15.341C29.787 14.811 29.957 14.341 29.897 13.731V13.73ZM91.854 48.19C91.574 47.854 91.056 48.394 91.288 48.712C91.518 49.028 91.89 49.502 91.845 49.914C91.801 50.332 92.282 50.204 92.368 49.9C92.545 49.274 92.248 48.662 91.854 48.19ZM90 45.643C89.672 45.148 89.415 44.61 89.152 44.077C88.82 43.405 87.882 44.199 88.257 44.737C88.611 45.247 88.957 45.763 89.372 46.223C89.699 46.583 90.242 46.006 90.002 45.643H90ZM88.558 47.554C88.29 47.234 87.816 47.742 88.02 48.05C88.204 48.324 88.306 48.62 88.36 48.943C88.456 49.526 89.218 49.105 89.09 48.623C88.983 48.23 88.82 47.869 88.558 47.553V47.554ZM85.318 44.692L85.134 44.512C85.139 44.196 84.86 43.9 84.61 43.709C84.255 43.441 83.88 43.279 83.48 43.091C83.123 42.925 82.803 43.567 83.088 43.806C83.348 44.021 83.613 44.213 83.9 44.388C84.07 44.492 84.242 44.59 84.412 44.69C84.449 44.71 84.55 44.78 84.552 44.782C84.564 44.795 84.578 44.807 84.592 44.82C84.599 44.85 84.615 44.877 84.66 44.883H84.666C84.696 44.906 84.702 44.903 84.686 44.885C84.76 44.925 84.846 44.921 84.922 44.888L85.038 45.011C85.223 45.201 85.5 44.861 85.318 44.691V44.692ZM84.188 40C83.754 39.84 83.405 40.604 83.854 40.808C84.379 41.048 85.18 41.434 85.456 41.974C85.589 42.238 85.922 42.019 85.906 41.779C85.846 40.813 85.011 40.301 84.188 39.999V40ZM91.007 51.503C90.742 51.145 90.267 51.646 90.367 51.973C90.66 52.921 91.237 53.741 91.502 54.687C91.679 55.319 92.497 54.687 92.392 54.179C92.172 53.143 91.622 52.335 91.007 51.502V51.503ZM87.98 51.286C87.712 51.003 87.314 51.446 87.484 51.739C87.691 52.092 87.819 52.526 87.941 52.917C88.055 53.279 88.551 52.957 88.516 52.667C88.45 52.127 88.364 51.693 87.98 51.285V51.286ZM92.35 57.975C92.174 57.645 91.63 58.105 91.774 58.4C92.114 59.092 92.649 59.734 92.499 60.546C92.413 61.003 93.009 60.893 93.096 60.534C93.34 59.517 92.801 58.827 92.349 57.974L92.35 57.975ZM92.633 66.2C92.587 65.68 91.419 65.91 91.443 66.347C91.801 73.014 91.878 80.094 90.433 86.617C90.381 86.84 90.853 86.807 90.91 86.635C93.01 80.175 93.224 72.897 92.633 66.2ZM28.686 38.55C28.593 38.452 28.301 38.587 28.37 38.676C30.53 41.442 30.266 44.776 30.368 47.813C30.468 50.753 30.338 53.71 30.233 56.66C30.216 57.153 31.545 56.92 31.553 56.51C31.636 53.205 31.669 49.907 31.423 46.62C31.217 43.836 31.023 40.983 28.686 38.55Z" fill="white"/>
</svg>
