<svg width="112" height="100" viewBox="0 0 112 100" fill="none" xmlns="http://www.w3.org/2000/svg">
<path d="M106.812 17.0998C104.894 17.2978 102.938 17.8518 101.062 18.3258C101.372 17.8358 101.666 17.3458 101.952 16.8808C103.178 14.8808 103.848 12.6978 104.764 10.5678C105.194 9.56984 103.916 9.12284 103.266 9.69084C103.079 9.69284 102.879 9.74584 102.669 9.86884C99.175 11.9348 95.294 13.4618 91.325 12.6268C90.305 11.0488 87.202 9.35684 86.505 8.97284C84.705 7.98084 82.74 7.03684 80.732 6.59284C79.148 6.23984 77.422 6.34284 75.812 6.30884C73.918 6.26884 71.98 6.04884 70.109 6.46684C66.879 7.18684 63.957 8.97684 61.079 10.5328C58.523 11.9128 56.663 14.2958 55.379 16.8158C54.619 18.3028 53.783 19.7158 53.167 21.2708C52.48 23.0008 52.277 24.8178 51.901 26.6208C51.511 28.4808 51.266 30.6028 51.578 32.5738C50.566 32.5768 49.543 32.6498 48.584 32.6188C46.09 32.5338 43.654 32.0688 41.247 31.4408C36.895 30.3078 32.643 28.6248 28.641 26.6088C24.629 24.5888 20.829 22.1688 17.116 19.6648C15.242 18.4018 13.676 16.8308 12.28 15.0818C11.8 14.4798 11.38 13.8048 10.953 13.1318C10.053 12.2168 9.19299 11.2778 8.45299 10.2618C8.33299 10.2318 8.20499 10.2278 8.07999 10.2458C7.86699 10.1958 7.65599 10.1438 7.44299 10.0928C7.25499 10.0488 7.03699 10.1148 6.84499 10.2398C6.67899 10.5038 6.51999 10.7698 6.36899 11.0418C6.37399 11.0858 6.37699 11.1318 6.39499 11.1718C5.18999 13.4048 5.02699 16.3648 4.67999 18.7978C4.24399 21.8578 5.04399 25.2098 5.70299 28.1848C6.34899 31.0988 7.57099 33.6808 8.83499 36.3668C9.35699 37.4768 9.90499 38.5838 10.64 39.5768C10.787 39.7768 10.956 39.9868 11.13 40.1968C9.44199 39.4488 7.87399 38.0718 6.44799 37.2908C4.99499 36.4948 3.56299 37.9978 3.60599 39.3708C3.77199 44.6488 6.38599 49.9848 9.90099 53.9008C11.518 55.7008 13.447 57.2268 15.358 58.7168C14.732 58.6408 14.116 58.6068 13.521 58.6638C12.403 58.7708 11.115 59.8338 11.417 61.0738C12.385 65.0388 16.5 68.4878 19.384 71.1868C21.384 73.0598 23.568 74.5518 26.026 75.7768C26.619 76.0738 27.216 76.3088 27.818 76.5098C24.428 77.9298 21.085 79.4698 17.59 80.7068C14.988 81.6268 12.468 82.0468 9.70699 82.0528C9.05099 82.0528 8.37999 82.1848 7.72899 82.2578C7.30099 82.3078 6.87399 82.3478 6.44499 82.3878C6.28499 82.4008 6.16299 82.4028 6.06999 82.3998C6.06399 82.4198 6.05699 82.4378 6.05199 82.4578C6.18199 82.5238 6.36799 82.6358 6.60499 82.8448C6.42699 82.6878 6.23499 82.5828 6.03499 82.5128C5.97799 82.7388 5.95899 82.9828 5.97299 83.2398C7.58299 85.0718 9.36899 86.7498 11.369 88.1198C12.922 88.8718 14.485 89.6078 15.981 90.4598C18.126 91.2478 20.278 91.9898 22.523 92.4968C25.988 93.2768 29.749 93.8348 33.461 94.0168C34.561 94.0368 35.659 94.0388 36.759 94.0198C37.764 94.0038 38.771 93.9698 39.779 93.9228C40.903 93.8198 42.005 93.6148 43.139 93.5698C43.472 93.5568 43.809 93.5798 44.149 93.6198C47.279 93.3298 50.396 92.8728 53.466 92.2258C54.328 91.9318 55.192 91.6518 56.056 91.4358C57.104 91.1728 58.11 90.6888 59.068 90.2058C60.251 89.6138 61.665 89.6658 62.901 89.1828C65.541 88.1528 67.983 86.7008 70.301 85.0958C74.791 81.9888 78.856 78.1458 82.241 73.8998C85.871 69.3538 88.301 64.0598 91.013 58.9718C93.698 53.9318 95.743 48.3858 96.987 42.8248C97.607 40.0508 98.237 37.2218 98.147 34.3628C98.1 32.9178 97.892 31.4848 97.845 30.0388C98.347 29.6228 98.795 29.1988 99.155 28.8758C100.485 27.6808 101.689 26.2818 102.795 24.8458C104.68 23.1178 106.511 21.5298 107.885 19.3028C108.425 18.4198 108.111 16.9648 106.809 17.0998H106.812Z" fill="white"/>
<path d="M85.145 62.485C85.145 62.485 84.945 62.101 84.885 61.63C84.841 61.39 84.85 61.12 84.845 60.87C84.852 60.618 84.895 60.368 84.971 60.13C85.159 59.59 85.471 59.1 85.906 58.798C86.296 58.488 86.704 58.386 86.704 58.386C86.704 58.386 86.898 58.789 86.968 59.236C87.018 59.47 87.022 59.702 87.018 59.969C87.008 60.229 86.958 60.489 86.876 60.739C86.779 61.021 86.646 61.292 86.489 61.526C86.336 61.77 86.139 61.936 85.939 62.076C85.559 62.362 85.146 62.484 85.146 62.484L85.145 62.485ZM82.358 57.333C82.358 57.333 82.188 56.918 82.171 56.413C82.131 55.893 82.249 55.288 82.508 54.751C82.771 54.217 83.174 53.751 83.611 53.466C84.021 53.168 84.454 53.048 84.454 53.048C84.454 53.048 84.624 53.464 84.642 53.97C84.687 54.488 84.566 55.093 84.305 55.63C84.04 56.163 83.635 56.63 83.201 56.914C82.791 57.212 82.359 57.334 82.359 57.334L82.358 57.333ZM61.936 77.358C61.936 77.358 61.95 77.26 61.986 77.118C62.003 76.978 62.136 76.79 62.131 76.621C62.141 76.451 62.144 76.324 62.181 76.168C62.201 76.104 62.218 76.034 62.241 75.966C62.258 75.894 62.304 75.852 62.328 75.778C62.398 75.653 62.498 75.538 62.616 75.413C62.749 75.301 62.873 75.167 63.046 75.065C63.334 74.845 63.699 74.673 63.699 74.673C63.699 74.673 63.774 74.735 63.871 74.847C63.963 74.959 64.091 75.123 64.164 75.322C64.244 75.525 64.31 75.762 64.284 76.015C64.279 76.268 64.194 76.535 64.059 76.78C63.907 77.017 63.719 77.245 63.465 77.384C63.24 77.529 62.945 77.619 62.685 77.622C62.435 77.657 62.295 77.525 62.153 77.479C62.02 77.415 61.937 77.359 61.937 77.359L61.936 77.358ZM72.575 76.63C72.575 76.63 72.86 76.96 73.025 77.41C73.132 77.63 73.18 77.9 73.172 78.206C73.162 78.503 73.142 78.83 73.027 79.126C72.903 79.418 72.745 79.698 72.562 79.936C72.402 80.181 72.112 80.346 71.886 80.468C71.428 80.723 71.018 80.732 71.018 80.732C71.018 80.732 70.918 80.279 70.923 79.842C70.903 79.606 70.968 79.41 70.97 79.154C70.99 78.911 71.048 78.679 71.14 78.461C71.203 78.358 71.22 78.238 71.276 78.131C71.322 78.023 71.38 77.918 71.446 77.816C71.583 77.622 71.741 77.418 71.899 77.223C72.199 76.851 72.574 76.633 72.574 76.633L72.575 76.63ZM66.484 80.83C66.484 80.83 66.794 81.046 66.997 81.34C67.117 81.484 67.205 81.646 67.189 81.904C67.189 82.144 67.135 82.41 67.039 82.65C66.922 82.846 66.769 83.025 66.595 83.16C66.435 83.302 66.213 83.384 65.997 83.405C65.59 83.475 65.263 83.329 65.263 83.329C65.263 83.329 65.188 82.927 65.16 82.619C65.14 82.314 65.092 81.969 65.245 81.769C65.275 81.675 65.345 81.604 65.461 81.529C65.516 81.487 65.595 81.466 65.658 81.401C65.718 81.331 65.793 81.266 65.862 81.207C66.132 80.967 66.486 80.829 66.486 80.829L66.484 80.83ZM54.902 81.524C54.902 81.524 55.212 81.74 55.415 82.034C55.535 82.178 55.625 82.34 55.608 82.599C55.608 82.839 55.555 83.104 55.46 83.345C55.34 83.541 55.187 83.721 55.013 83.857C54.853 83.997 54.63 84.079 54.413 84.1C54.007 84.172 53.68 84.024 53.68 84.024C53.68 84.024 53.607 83.624 53.58 83.314C53.557 83.009 53.51 82.666 53.664 82.466C53.694 82.371 53.764 82.301 53.88 82.226C53.934 82.183 54.012 82.162 54.076 82.096C54.136 82.026 54.21 81.962 54.279 81.903C54.547 81.663 54.901 81.523 54.901 81.523L54.902 81.524ZM59.622 82.9C59.622 82.9 59.63 82.8 59.657 82.656C59.665 82.516 59.787 82.32 59.77 82.151C59.768 81.981 59.762 81.853 59.79 81.695C59.807 81.63 59.82 81.559 59.837 81.489C59.85 81.417 59.894 81.372 59.913 81.299C59.975 81.169 60.068 81.047 60.178 80.914C60.303 80.794 60.418 80.652 60.583 80.54C60.857 80.3 61.213 80.106 61.213 80.106C61.213 80.106 61.29 80.164 61.395 80.269C61.495 80.373 61.632 80.529 61.717 80.723C61.809 80.92 61.89 81.153 61.881 81.408C61.891 81.66 61.824 81.928 61.705 82.184C61.567 82.431 61.395 82.669 61.15 82.824C60.932 82.984 60.643 83.094 60.385 83.112C60.135 83.164 59.989 83.042 59.843 83.004C59.708 82.946 59.623 82.897 59.623 82.897L59.622 82.9ZM70.55 71.04C70.55 71.04 70.86 71.256 71.063 71.55C71.183 71.694 71.271 71.856 71.255 72.115C71.255 72.355 71.202 72.621 71.107 72.861C70.987 73.058 70.835 73.237 70.661 73.373C70.501 73.513 70.281 73.595 70.064 73.616C69.657 73.686 69.33 73.54 69.33 73.54C69.33 73.54 69.254 73.138 69.226 72.828C69.204 72.524 69.159 72.181 69.311 71.981C69.341 71.887 69.411 71.816 69.528 71.741C69.582 71.699 69.661 71.678 69.724 71.614C69.784 71.544 69.859 71.478 69.928 71.419C70.196 71.179 70.551 71.041 70.551 71.041L70.55 71.04ZM76.108 74.833C76.108 74.833 75.938 74.418 75.921 73.913C75.881 73.393 75.999 72.789 76.257 72.253C76.521 71.717 76.923 71.25 77.36 70.966C77.77 70.669 78.202 70.549 78.202 70.549C78.202 70.549 78.372 70.964 78.39 71.469C78.434 71.989 78.313 72.593 78.053 73.129C77.787 73.663 77.383 74.129 76.949 74.414C76.539 74.711 76.107 74.832 76.107 74.832L76.108 74.833ZM81.184 65.365C81.184 65.365 81.179 65.272 81.184 65.139C81.19 65.075 81.194 64.992 81.207 64.917C81.193 64.84 81.167 64.759 81.142 64.705C81.112 64.645 81.072 64.601 81.072 64.518C81.062 64.448 81.056 64.38 81.059 64.323C81.062 64.183 81.099 64.078 81.162 63.958C81.298 63.743 81.567 63.558 81.908 63.478C82.22 63.384 82.591 63.392 82.591 63.392C82.591 63.392 82.826 63.677 82.933 63.996C83.063 64.328 83.056 64.694 82.866 65.003C82.779 65.15 82.626 65.291 82.469 65.389C82.381 65.444 82.285 65.485 82.192 65.516C82.112 65.539 81.977 65.578 81.86 65.596C81.752 65.616 81.645 65.608 81.56 65.592C81.494 65.564 81.424 65.52 81.37 65.488C81.256 65.418 81.184 65.363 81.184 65.363V65.365ZM73.684 66.115C73.684 66.115 73.679 66.022 73.684 65.889C73.69 65.825 73.694 65.742 73.707 65.667C73.693 65.59 73.667 65.509 73.642 65.455C73.612 65.395 73.572 65.351 73.572 65.268C73.562 65.198 73.556 65.13 73.559 65.073C73.562 64.933 73.599 64.828 73.662 64.708C73.798 64.493 74.067 64.308 74.408 64.228C74.72 64.134 75.091 64.142 75.091 64.142C75.091 64.142 75.326 64.427 75.433 64.746C75.563 65.078 75.556 65.444 75.366 65.753C75.279 65.9 75.126 66.041 74.969 66.139C74.881 66.194 74.785 66.235 74.692 66.266C74.612 66.289 74.477 66.328 74.36 66.346C74.252 66.366 74.145 66.358 74.06 66.342C73.994 66.314 73.924 66.27 73.87 66.238C73.756 66.168 73.684 66.113 73.684 66.113V66.115ZM88.31 51.615C88.31 51.615 88.304 51.522 88.31 51.389C88.315 51.325 88.318 51.242 88.332 51.167C88.318 51.09 88.292 51.009 88.267 50.955C88.237 50.895 88.197 50.851 88.197 50.768C88.187 50.698 88.181 50.63 88.184 50.573C88.188 50.433 88.224 50.328 88.288 50.208C88.424 49.993 88.693 49.808 89.034 49.728C89.347 49.634 89.718 49.642 89.718 49.642C89.718 49.642 89.953 49.927 90.06 50.246C90.19 50.578 90.183 50.944 89.993 51.253C89.906 51.4 89.753 51.541 89.596 51.639C89.506 51.694 89.411 51.735 89.318 51.766C89.238 51.789 89.103 51.828 88.986 51.846C88.876 51.866 88.77 51.858 88.686 51.842C88.619 51.814 88.549 51.77 88.496 51.738C88.381 51.668 88.309 51.613 88.309 51.613L88.31 51.615ZM59.35 86.022C59.35 86.022 59.437 86.022 59.56 86.035C59.678 86.065 59.835 86.029 59.97 86.149C60.04 86.203 60.116 86.274 60.17 86.361C60.232 86.461 60.27 86.511 60.3 86.593C60.37 86.753 60.38 86.905 60.356 87.05C60.293 87.334 60.058 87.536 59.748 87.598C59.465 87.675 59.114 87.638 59.114 87.638C59.114 87.638 58.846 87.408 58.674 87.191C58.478 86.961 58.374 86.765 58.4 86.641C58.414 86.579 58.465 86.528 58.538 86.491C58.574 86.475 58.628 86.431 58.675 86.441C58.725 86.438 58.793 86.424 58.857 86.401C58.987 86.363 59.079 86.209 59.181 86.148C59.276 86.072 59.351 86.023 59.351 86.023L59.35 86.022ZM65.697 20.158C65.24 20.596 64.847 21.074 64.47 21.583C64.11 22.076 63.85 22.608 63.35 22.99C62.983 23.268 63.013 24.065 63.607 23.808C64.269 23.522 64.817 23.075 65.334 22.58C65.867 22.072 66.221 21.418 66.668 20.84C67.198 20.16 66.242 19.64 65.698 20.158H65.697ZM59.07 21.8C58.413 22.61 58.174 23.487 58.308 24.517C58.378 25.047 59.118 24.702 59.154 24.312C59.211 23.686 59.404 23.036 59.836 22.562C60.409 21.934 59.6 21.152 59.07 21.802V21.8ZM61.062 27.03C60.468 27.692 60.058 28.456 59.585 29.202C59.375 29.532 59.723 29.944 60.061 29.672C60.746 29.124 61.247 28.442 61.828 27.794C62.388 27.167 61.628 26.397 61.063 27.03H61.062ZM59.066 16.686C58.296 16.716 57.993 18.056 58.926 18.02C59.699 17.99 60.003 16.648 59.066 16.686ZM56.926 20.646C56.916 20.634 56.906 20.622 56.894 20.611C56.682 20.366 56.396 20.521 56.224 20.755C55.676 20.858 55.498 21.859 56.134 21.718C56.461 21.643 56.768 21.51 56.939 21.204C57.043 21.019 57.069 20.816 56.925 20.647L56.926 20.646ZM76.745 8.5C71.563 8.58 66.839 10.65 62.628 13.4C61.918 13.865 62.578 14.636 63.283 14.232C67.501 11.81 71.813 9.766 76.695 8.89C76.895 8.852 77.022 8.5 76.745 8.5ZM56.56 26.8C56.508 26.8 56.485 26.89 56.547 26.888C56.6 26.886 56.623 26.798 56.561 26.8H56.56ZM55.838 27.51C55.332 27.53 55.128 28.413 55.74 28.39C56.243 28.37 56.452 27.486 55.838 27.51ZM57.312 29.396C56.806 29.416 56.602 30.298 57.214 30.274C57.717 30.254 57.926 29.371 57.312 29.396ZM66.062 16.27C65.556 16.29 65.352 17.173 65.964 17.15C66.467 17.13 66.676 16.246 66.062 16.27ZM56.52 32.343C56.416 32.277 56.314 32.208 56.208 32.143C55.831 31.899 55.408 32.525 55.645 32.841L55.878 33.149C56.211 33.589 57.108 32.726 56.521 32.344L56.52 32.343ZM63.375 17.597C63.27 17.531 63.168 17.462 63.062 17.397C62.685 17.153 62.262 17.779 62.499 18.095L62.731 18.402C63.064 18.842 63.963 17.979 63.374 17.597H63.375ZM47.086 86.528C40.821 88.563 32.866 87.46 26.486 86.393C26.109 86.331 25.792 86.995 26.24 87.079C32.624 88.269 40.932 89.239 47.13 86.819C47.303 86.752 47.304 86.459 47.086 86.527V86.528Z" fill="white"/>
</svg>
